<svg width="285" height="352" viewBox="0 0 285 352" fill="none" xmlns="http://www.w3.org/2000/svg">
<path d="M1.01563 1.05206C22.151 0.791641 40.0417 4.98956 56.8021 18.6823C68.2813 28.0573 75.7552 39.8594 80.0729 53.8125C93.2813 96.5208 64.6927 131.323 42.4375 164.359C34.1615 176.641 26.2708 191.115 20.0313 204.589C6.0625 234.76 1.17187 268.927 1.32292 301.943C1.34375 306.687 0.854168 313.714 1.30208 318.187C2.52604 317.385 2.36459 310.245 2.51042 308.464C4.46354 284.807 7.33333 261.479 14.276 238.719C28.4427 192.25 58.5938 144.385 107.776 130.057C141.052 120.359 177.698 131.651 196.234 161.734C200.714 169.01 203.13 175.953 205.375 184.099C204.776 174.604 205.203 162.391 205.219 152.74L205.182 95.0885C208.797 95.1458 212.542 95.1041 216.161 95.0521C238.667 94.7239 261.354 95.4479 283.844 94.9531C284.438 124.292 284.078 155.333 284.156 184.724C284.214 203.469 284.88 222.719 282.677 241.37C275.792 299.719 226.63 350.047 166.479 350.839C164.703 350.865 155.208 351.26 154.25 351.078C154.667 350.187 160.036 349.552 161.359 349.365C174.99 347.474 188.391 336.75 195.776 325.562C208.432 306.057 204.797 280.016 205.068 257.75C205.276 240.536 204.786 223.203 205.068 205.943C199.99 205.672 193.25 205.854 188.057 205.849L156.594 205.839C131.411 205.833 105.068 205.479 79.9844 205.979C79.6875 210.271 79.9271 217.078 79.9271 221.552L79.7865 249.484L79.6771 350.828C54.1042 350.385 26.1302 350.599 0.5 350.88C0.364584 345.911 0.411458 340.922 0.40625 335.953C0.390625 312.87 0.4375 289.802 0.5 266.714L0.338542 186.255L0.333334 57.5469C0.338542 39.9375 0.21875 22.3229 0.177084 4.71352C0.171876 3.10935 0.0364587 2.10414 1.01563 1.05206Z" fill="#F5E6D3"/>
<path d="M146.948 256.344C170.411 254.745 190.766 272.385 192.51 295.839C194.255 319.292 176.734 339.755 153.292 341.641C129.646 343.542 108.974 325.839 107.214 302.182C105.453 278.526 123.286 257.964 146.948 256.344Z" fill="#F5E6D3"/>
<path d="M238.922 1.10415C261.271 -1.54689 281.51 14.4948 284.036 36.8542C286.563 59.2187 270.411 79.3698 248.031 81.7708C225.828 84.1562 205.87 68.1562 203.365 45.9687C200.859 23.7812 216.745 3.73436 238.922 1.10415Z" fill="#F5E6D3"/>
</svg>
